<svg xmlns="http://www.w3.org/2000/svg" width="19.002" height="19.002" viewBox="173.499 6915.499 19.002 19.002"><g data-name="instagram"><path d="M183.003 6920.121a4.875 4.875 0 1 0 0 9.751 4.875 4.875 0 1 0 0-9.751Zm0 8.04a3.164 3.164 0 1 1 3.165-3.165 3.163 3.163 0 0 1-3.165 3.165Z" fill="#fff" fill-rule="evenodd" data-name="Path 634"/><path d="M186.918 6915.559c-1.748-.082-6.079-.078-7.828 0-1.538.072-2.894.443-3.988 1.537-1.827 1.827-1.593 4.29-1.593 7.9 0 3.697-.206 6.102 1.593 7.902 1.835 1.833 4.333 1.593 7.901 1.593 3.661 0 4.925.003 6.22-.498 1.76-.684 3.088-2.257 3.218-5.083.082-1.749.078-6.078 0-7.828-.157-3.336-1.947-5.358-5.523-5.523Zm2.767 16.13c-1.198 1.198-2.86 1.09-6.705 1.09-3.958 0-5.546.06-6.704-1.102-1.334-1.328-1.093-3.46-1.093-6.693 0-4.375-.449-7.525 3.941-7.75 1.01-.035 1.306-.047 3.845-.047l.036.023c4.22 0 7.53-.441 7.728 3.948.045 1.002.056 1.303.056 3.838-.001 3.913.073 5.51-1.104 6.693Z" fill="#fff" fill-rule="evenodd" data-name="Path 635"/><path d="M186.933 6919.829a1.14 1.14 0 1 1 0 .1z" fill="#fff" fill-rule="evenodd" data-name="Ellipse 10"/></g></svg>